<svg xmlns="http://www.w3.org/2000/svg" width="47.294" height="50.534" viewBox="0 0 47.294 50.534"><defs><style>.a,.b{fill:rgba(255,255,255,0.5);}.b{fill-rule:evenodd;}</style></defs><ellipse class="a" cx="20.286" cy="7.638" rx="20.286" ry="7.638" transform="translate(0)"/><path class="b" d="M27.018,16.978l3.2-3.2a59.146,59.146,0,0,1-9.862.823C9.263,14.605.016,11.514.016,9.444V19.757c0,3.748,9.108,6.77,20.339,6.77a56.473,56.473,0,0,0,8.218-.58l3.71-3.71-5.265-5.259Z" transform="translate(0.034 20.35)"/><path class="b" d="M20.386,21.861c11.234,0,20.339-3.1,20.339-6.928V4.377c0,2.12-9.25,5.281-20.339,5.281S.047,6.5.047,4.377V14.933c0,3.83,9.108,6.928,20.339,6.928Z" transform="translate(0.101 9.432)"/><path class="b" d="M25.8,13.557,23.23,10.983l-5.37,5.373L12.6,11.1l-2.571,2.565,5.262,5.262L9.973,24.243l2.568,2.574,5.322-5.322,5.37,5.373L25.8,24.3l-5.373-5.37Z" transform="translate(21.49 23.667)"/></svg>