<svg xmlns="http://www.w3.org/2000/svg" width="97.047" height="19.41" viewBox="0 0 97.047 19.41"><defs><style>.a{fill:#fff;}.b,.c{stroke:none;}.c{fill:#34af48;}</style></defs><g class="a"><path class="b" d="M 87.15431213378906 19.15950012207031 L 9.893196105957031 19.15950012207031 C 4.575921535491943 19.15950012207031 0.2499964833259583 14.91811275482178 0.2499964833259583 9.704750061035156 C 0.2499964833259583 4.491387367248535 4.575921535491943 0.2500000596046448 9.893196105957031 0.2500000596046448 L 87.15431213378906 0.2500000596046448 C 92.47158050537109 0.2500000596046448 96.79749298095703 4.491387367248535 96.79749298095703 9.704750061035156 C 96.79749298095703 14.91811275482178 92.47158050537109 19.15950012207031 87.15431213378906 19.15950012207031 Z"/><path class="c" d="M 9.893180847167969 0.5 C 4.713760375976562 0.5 0.5 4.629237174987793 0.5 9.704750061035156 C 0.5 14.7802619934082 4.713760375976562 18.90950012207031 9.893180847167969 18.90950012207031 L 87.15431213378906 18.90950012207031 C 92.33373260498047 18.90950012207031 96.54749298095703 14.7802619934082 96.54749298095703 9.704750061035156 C 96.54749298095703 4.629237174987793 92.33373260498047 0.5 87.15431213378906 0.5 L 9.893180847167969 0.5 M 9.893180847167969 0 L 87.15431213378906 0 C 92.61815643310547 0 97.04749298095703 4.344962120056152 97.04749298095703 9.704750061035156 C 97.04749298095703 15.06453704833984 92.61815643310547 19.40950012207031 87.15431213378906 19.40950012207031 L 9.893180847167969 19.40950012207031 C 4.4293212890625 19.40950012207031 0 15.06453704833984 0 9.704750061035156 C 0 4.344962120056152 4.4293212890625 0 9.893180847167969 0 Z"/></g></svg>