<svg xmlns="http://www.w3.org/2000/svg" xmlns:xlink="http://www.w3.org/1999/xlink" width="107" height="32" viewBox="0 0 107 32"><defs><style>.a{fill:rgba(255,255,255,0.5);}.b,.c{stroke:none;}.c{fill:rgba(255,255,255,0.5);}.d{filter:url(#a);}</style><filter id="a" x="0" y="0" width="107" height="32" filterUnits="userSpaceOnUse"><feOffset dx="1" dy="2" input="SourceAlpha"/><feGaussianBlur result="b"/><feFlood flood-opacity="0.161"/><feComposite operator="in" in2="b"/><feComposite in="SourceGraphic"/></filter></defs><g class="d" transform="matrix(1, 0, 0, 1, 0, 0)"><g class="a"><path class="b" d="M10,0H96a10,10,0,0,1,10,10V20A10,10,0,0,1,96,30H10A10,10,0,0,1,0,20V10A10,10,0,0,1,10,0Z"/><path class="c" d="M 10 1 C 5.037384033203125 1 1 5.037385940551758 1 10 L 1 20 C 1 24.96261405944824 5.037384033203125 29 10 29 L 96 29 C 100.9626159667969 29 105 24.96261405944824 105 20 L 105 10 C 105 5.037385940551758 100.9626159667969 1 96 1 L 10 1 M 10 0 L 96 0 C 101.5228424072266 0 106 4.477157592773438 106 10 L 106 20 C 106 25.52284240722656 101.5228424072266 30 96 30 L 10 30 C 4.477142333984375 30 0 25.52284240722656 0 20 L 0 10 C 0 4.477157592773438 4.477142333984375 0 10 0 Z"/></g></g></svg>